<svg xmlns="http://www.w3.org/2000/svg" version="1.1" xmlns:xlink="http://www.w3.org/1999/xlink" width="96" height="96"><svg width="96" height="96" viewBox="0 0 96 96" fill="none" xmlns="http://www.w3.org/2000/svg">
<rect width="96" height="96" fill="url(#paint0_linear_1_2)"></rect>
<g clip-path="url(#clip0_1_2)">
<path d="M83.7641 70.1106L48.0674 88L12.9436 70.1273L48.0674 55.0309L83.7641 70.1106Z" fill="url(#paint1_linear_1_2)"></path>
<path d="M48.1618 56.444L12.9436 69.7924L47.3192 11.523L48.1618 56.444Z" fill="url(#paint2_linear_1_2)"></path>
<path d="M12.9436 69.7925L13.2806 27.2624L47.6731 11.0273" fill="url(#paint3_linear_1_2)"></path>
<path d="M83.7641 70.1106L48.0674 55.0309L47.3192 10.8532L83.8079 27.5605L83.7641 70.1106Z" fill="url(#paint4_linear_1_2)"></path>
<path d="M48.1112 86.0276C47.9056 86.0276 47.7001 85.9807 47.5113 85.8869L13.3042 68.9754C12.8459 68.7476 12.5561 68.2855 12.5561 67.7765L12.5245 28.5655C12.5245 28.0498 12.8211 27.581 13.2929 27.3566L47.5 11.1148C47.864 10.9407 48.292 10.9407 48.6593 11.1148L83.2001 27.3566C83.6719 27.5776 83.9718 28.0532 83.9718 28.5722L83.8382 67.7832C83.8382 68.2888 83.545 68.7543 83.0867 68.9787L48.7111 85.8903C48.5224 85.984 48.3168 86.0309 48.1146 86.0309L48.1112 86.0276ZM15.2522 66.946L48.1112 83.1911L81.1421 66.9426L81.3005 26.4286L48.1146 10.8231L15.2522 26.4252V66.946Z" fill="white"></path>
<path d="M48.1112 42.8277C48.0135 42.8277 47.9124 42.8043 47.8214 42.7608L13.6143 26.519C13.2773 26.3582 13.8382 26.3349 14 26C14.1618 25.6651 14.5628 25.5245 14.8998 25.6852L48.1146 41.4145L81.6058 25.6282C81.9429 25.4708 81.2381 26.8908 83 26C83.1584 26.3349 82.3655 27.5 82.9418 26.519L48.4011 42.7608C48.3101 42.8043 48.2123 42.8244 48.1112 42.8244V42.8277Z" fill="white"></path>
<path d="M83.1608 69.4509C83.0665 69.4509 82.9721 69.4308 82.8845 69.3906L72.0797 64.5248C71.7394 64.3707 71.5911 63.9755 71.7427 63.6373C71.8978 63.2991 72.2954 63.1484 72.6358 63.3024L83.4405 68.1683C83.7809 68.3223 83.9292 68.7175 83.7776 69.0557C83.6663 69.3035 83.4203 69.4509 83.1642 69.4509H83.1608Z" fill="white"></path>
<path d="M13.2335 69.4509C12.9773 69.4509 12.7313 69.3035 12.6201 69.0557C12.4685 68.7175 12.6201 68.3223 12.9571 68.1683L24.8942 62.8169C25.2312 62.6662 25.6323 62.8169 25.7873 63.1517C25.939 63.49 25.7873 63.8851 25.4503 64.0392L13.5132 69.3906C13.4222 69.4308 13.3278 69.4509 13.2369 69.4509H13.2335Z" fill="white"></path>
<path d="M48.1112 21.8842C47.7405 21.8842 47.4372 21.5828 47.4372 21.2144V10.5C47.4372 10.1316 47.7405 10.3302 48.1112 10.3302C48.4819 10.3302 48.7853 10.6316 48.7853 11V21.2144C48.7853 21.5828 48.4819 21.8842 48.1112 21.8842Z" fill="white"></path>
<path d="M30.7852 29.7841C29.6697 29.7841 28.7632 28.8833 28.7632 27.7748V25.9162C28.7632 24.8077 29.6697 23.9069 30.7852 23.9069C31.9008 23.9069 32.8073 24.8077 32.8073 25.9162V27.7748C32.8073 28.8833 31.9008 29.7841 30.7852 29.7841Z" fill="white"></path>
<path d="M30.7852 69.5246C29.6697 69.5246 28.7632 68.6237 28.7632 67.5153V39.1775C28.7632 38.0691 29.6697 37.1682 30.7852 37.1682C31.9008 37.1682 32.8073 38.0691 32.8073 39.1775V67.5153C32.8073 68.6237 31.9008 69.5246 30.7852 69.5246Z" fill="white"></path>
<path d="M65.7742 29.7841C64.6587 29.7841 63.7521 28.8833 63.7521 27.7748V25.5813C63.7521 24.4729 64.6587 23.572 65.7742 23.572C66.8897 23.572 67.7963 24.4729 67.7963 25.5813V27.7748C67.7963 28.8833 66.8897 29.7841 65.7742 29.7841Z" fill="white"></path>
<path d="M65.8686 48.6145H65.8585C64.7429 48.6078 63.8397 47.707 63.8465 46.5952L63.8802 39.1675C63.8869 38.0624 64.7901 37.1682 65.9023 37.1682H65.9124C67.0279 37.1749 67.9311 38.0758 67.9244 39.1876L67.8907 46.6153C67.8839 47.7204 66.9807 48.6145 65.8686 48.6145Z" fill="white"></path>
<path d="M65.7742 69.5246H65.7641C64.6486 69.5179 63.7454 68.6137 63.7521 67.5052L63.7824 61.5142C63.7892 60.4091 64.6924 59.5149 65.8045 59.5149H65.8146C66.9302 59.5216 67.8334 60.4258 67.8266 61.5343L67.7963 67.5253C67.7896 68.6304 66.8864 69.5246 65.7742 69.5246Z" fill="white"></path>
<path d="M45.1387 48.0553H36.3325V46.3808C36.3325 45.6408 36.9358 45.0413 37.6806 45.0413H43.7907C44.5355 45.0413 45.1387 45.6408 45.1387 46.3808V48.0553Z" fill="white"></path>
<path d="M53.9854 35.6646H42.574V34.3251C42.574 33.585 43.1773 32.9856 43.9221 32.9856H52.6373C53.3821 32.9856 53.9854 33.585 53.9854 34.3251V35.6646Z" fill="white"></path>
<path d="M45.1387 60.111H36.3325V58.4366C36.3325 57.6965 36.9358 57.0971 37.6806 57.0971H43.7907C44.5355 57.0971 45.1387 57.6965 45.1387 58.4366V60.111Z" fill="white"></path>
<path d="M65.7742 27.5906H30.7852C29.6697 27.5906 28.7632 26.6898 28.7632 25.5813C28.7632 24.4729 29.6697 23.572 30.7852 23.572H65.7742C66.8897 23.572 67.7963 24.4729 67.7963 25.5813C67.7963 26.6898 66.8897 27.5906 65.7742 27.5906Z" fill="white"></path>
<path d="M65.6091 69.7858L60.6549 69.414V67.7765C60.6549 66.668 61.5615 65.7672 62.677 65.7672H65.6091C66.7246 65.7672 67.6312 66.668 67.6312 67.7765C67.6312 68.8849 66.7246 69.7858 65.6091 69.7858Z" fill="white"></path>
<path d="M55.7109 69.4509H50.8107V67.7765C50.8107 66.668 51.7173 65.7672 52.8328 65.7672H53.6888C54.8043 65.7672 55.7109 66.668 55.7109 67.7765V69.4509Z" fill="white"></path>
<path d="M45.4151 69.4609L30.7819 69.7858C29.6664 69.7858 28.7598 68.8849 28.7598 67.7765C28.7598 66.668 29.6664 65.7672 30.7819 65.7672H43.393C44.5085 65.7672 45.4151 66.668 45.4151 67.7765V69.4609Z" fill="white"></path>
<path d="M60.291 48.0553H51.4847V46.3808C51.4847 45.6408 52.088 45.0413 52.8328 45.0413H58.9429C59.6877 45.0413 60.291 45.6408 60.291 46.3808V48.0553Z" fill="white"></path>
<path d="M60.291 60.111H51.4847V58.4366C51.4847 57.6965 52.088 57.0971 52.8328 57.0971H58.9429C59.6877 57.0971 60.291 57.6965 60.291 58.4366V60.111Z" fill="white"></path>
<path d="M45.1387 54.0831H36.3325V52.4087C36.3325 51.6686 36.9358 51.0692 37.6806 51.0692H43.7907C44.5355 51.0692 45.1387 51.6686 45.1387 52.4087V54.0831Z" fill="white"></path>
<path d="M60.291 54.0831H51.4847V52.4087C51.4847 51.6686 52.088 51.0692 52.8328 51.0692H58.9429C59.6877 51.0692 60.291 51.6686 60.291 52.4087V54.0831Z" fill="white"></path>
<path d="M47.2822 87.0183C47.1676 87.0183 47.0496 86.9882 46.9452 86.9279C46.6216 86.7437 46.5138 86.3318 46.6991 86.0137L81.2399 26.907C81.4252 26.5888 81.8398 26.4783 82.1599 26.6625C82.4835 26.8467 82.5913 27.2586 82.4059 27.5767L47.8652 86.6834C47.7405 86.8977 47.5147 87.0183 47.2822 87.0183Z" fill="white"></path>
<path d="M12.674 70.3852C12.5594 70.3852 12.4415 70.3551 12.337 70.2948C12.0135 70.1106 11.9056 69.6987 12.091 69.3805L24.419 48.283C24.6044 47.9615 25.0189 47.8543 25.3391 48.0385C25.6626 48.2227 25.7705 48.6346 25.5851 48.9527L13.2571 70.0503C13.1324 70.2646 12.9066 70.3852 12.674 70.3852Z" fill="white"></path>
<path d="M39.5578 24.4293C39.4432 24.4293 39.3252 24.3992 39.2207 24.3389C38.8972 24.1547 38.7894 23.7428 38.9747 23.4247L45.9712 11.4526C46.1565 11.1345 46.571 11.024 46.8912 11.2082C47.2147 11.3924 47.3226 11.8043 47.1372 12.1224L40.1408 24.0944C40.0161 24.3088 39.7903 24.4293 39.5578 24.4293Z" fill="white"></path>
<path d="M48.1146 87.702C47.909 87.702 47.7034 87.6551 47.5147 87.5613L13.3042 70.6498C12.8459 70.422 12.5561 69.9599 12.5561 69.4509V27.2557C12.5561 26.74 12.8526 26.2712 13.3245 26.0468L47.5315 9.80501C47.8955 9.63087 48.3235 9.63087 48.6909 9.80501L83.2316 26.0468C83.7034 26.2678 84.0034 26.7434 84.0034 27.2624L83.8382 69.4576C83.8382 69.9632 83.545 70.4287 83.0867 70.6531L48.7111 87.5647C48.5224 87.6584 48.3168 87.7053 48.1146 87.7053V87.702ZM15.2522 68.6204L48.1112 84.8655L81.1421 68.617L81.3005 28.0996L48.1146 12.4975L15.2522 28.0996V68.6204Z" fill="#231F20"></path>
<path d="M48.1146 44.1673C48.0169 44.1673 47.9157 44.1438 47.8248 44.1003L13.6143 27.8619C13.2773 27.7011 13.1357 27.3026 13.2975 26.9677C13.4593 26.6328 13.8603 26.4922 14.1973 26.6529L48.1146 42.7574L82.3655 26.6529C82.7025 26.4955 83.1035 26.6362 83.2619 26.9711C83.4203 27.306 83.2788 27.7045 82.9418 27.8619L48.401 44.1036C48.3101 44.1472 48.2123 44.1673 48.1112 44.1673H48.1146Z" fill="#231F20"></path>
<path d="M82.4868 70.1207C82.3924 70.1207 82.2981 70.1006 82.2105 70.0604L71.4057 65.1945C71.0654 65.0405 70.9171 64.6453 71.0687 64.3071C71.2237 63.9689 71.6214 63.8215 71.9618 63.9722L82.7665 68.8381C83.1069 68.9921 83.2552 69.3873 83.1035 69.7255C82.9923 69.9733 82.7463 70.1207 82.4902 70.1207H82.4868Z" fill="#231F20"></path>
<path d="M13.9075 70.1206C13.6514 70.1206 13.4054 69.9733 13.2942 69.7255C13.1425 69.3872 13.2942 68.9921 13.6312 68.838L25.5683 63.4866C25.9053 63.3359 26.3063 63.4866 26.4614 63.8215C26.613 64.1597 26.4614 64.5549 26.1243 64.7089L14.1872 70.0604C14.0963 70.1005 14.0019 70.1206 13.9109 70.1206H13.9075Z" fill="#231F20"></path>
<path d="M48.1146 20.7389C47.7439 20.7389 47.4406 20.4375 47.4406 20.0692V11.0139C47.4406 10.6456 47.7439 10.3442 48.1146 10.3442C48.4853 10.3442 48.7886 10.6456 48.7886 11.0139V20.0692C48.7886 20.4375 48.4853 20.7389 48.1146 20.7389Z" fill="#231F20"></path>
<path d="M48.1146 87.0322C47.7439 87.0322 47.4406 86.7308 47.4406 86.3624V43.4975C47.4406 43.1291 47.7439 42.8277 48.1146 42.8277C48.4853 42.8277 48.7886 43.1291 48.7886 43.4975V86.3624C48.7886 86.7308 48.4853 87.0322 48.1146 87.0322Z" fill="#231F20"></path>
<path d="M30.7852 31.4585C29.6697 31.4585 28.7632 30.5577 28.7632 29.4492V27.5906C28.7632 26.4821 29.6697 25.5813 30.7852 25.5813C31.9008 25.5813 32.8073 26.4821 32.8073 27.5906V29.4492C32.8073 30.5577 31.9008 31.4585 30.7852 31.4585Z" fill="#231F20"></path>
<path d="M30.7852 71.199C29.6697 71.199 28.7632 70.2981 28.7632 69.1897V40.8519C28.7632 39.7435 29.6697 38.8427 30.7852 38.8427C31.9008 38.8427 32.8073 39.7435 32.8073 40.8519V69.1897C32.8073 70.2981 31.9008 71.199 30.7852 71.199Z" fill="#231F20"></path>
<path d="M65.7742 31.4585C64.6587 31.4585 63.7521 30.5577 63.7521 29.4492V27.2557C63.7521 26.1473 64.6587 25.2464 65.7742 25.2464C66.8897 25.2464 67.7963 26.1473 67.7963 27.2557V29.4492C67.7963 30.5577 66.8897 31.4585 65.7742 31.4585Z" fill="#231F20"></path>
<path d="M65.8686 50.2889H65.8585C64.7429 50.2822 63.8397 49.3814 63.8465 48.2696L63.8802 40.8419C63.8869 39.7368 64.7901 38.8427 65.9023 38.8427H65.9124C67.0279 38.8493 67.9311 39.7502 67.9244 40.862L67.8907 48.2897C67.8839 49.3948 66.9807 50.2889 65.8686 50.2889Z" fill="#231F20"></path>
<path d="M65.7742 71.199H65.7641C64.6486 71.1923 63.7454 70.2881 63.7521 69.1796L63.7824 63.1886C63.7892 62.0835 64.6924 61.1893 65.8045 61.1893H65.8146C66.9302 61.196 67.8334 62.1002 67.8266 63.2087L67.7963 69.1997C67.7896 70.3048 66.8864 71.199 65.7742 71.199Z" fill="#231F20"></path>
<path d="M43.7907 49.3948H37.6806C36.9358 49.3948 36.3325 48.7953 36.3325 48.0553C36.3325 47.3152 36.9358 46.7157 37.6806 46.7157H43.7907C44.5355 46.7157 45.1387 47.3152 45.1387 48.0553C45.1387 48.7953 44.5355 49.3948 43.7907 49.3948Z" fill="#231F20"></path>
<path d="M52.6373 37.339H43.9221C43.1773 37.339 42.574 36.7396 42.574 35.9995C42.574 35.2594 43.1773 34.66 43.9221 34.66H52.6373C53.3821 34.66 53.9854 35.2594 53.9854 35.9995C53.9854 36.7396 53.3821 37.339 52.6373 37.339Z" fill="#231F20"></path>
<path d="M43.7907 61.4505H37.6806C36.9358 61.4505 36.3325 60.8511 36.3325 60.111C36.3325 59.3709 36.9358 58.7715 37.6806 58.7715H43.7907C44.5355 58.7715 45.1387 59.3709 45.1387 60.111C45.1387 60.8511 44.5355 61.4505 43.7907 61.4505Z" fill="#231F20"></path>
<path d="M65.7742 29.265H30.7852C29.6697 29.265 28.7632 28.3642 28.7632 27.2557C28.7632 26.1473 29.6697 25.2464 30.7852 25.2464H65.7742C66.8897 25.2464 67.7963 26.1473 67.7963 27.2557C67.7963 28.3642 66.8897 29.265 65.7742 29.265Z" fill="#231F20"></path>
<path d="M65.6091 71.4602H62.677C61.5615 71.4602 60.6549 70.5593 60.6549 69.4509C60.6549 68.3424 61.5615 67.4416 62.677 67.4416H65.6091C66.7246 67.4416 67.6312 68.3424 67.6312 69.4509C67.6312 70.5593 66.7246 71.4602 65.6091 71.4602Z" fill="#231F20"></path>
<path d="M53.6888 71.4602H52.8328C51.7173 71.4602 50.8107 70.5593 50.8107 69.4509C50.8107 68.3424 51.7173 67.4416 52.8328 67.4416H53.6888C54.8043 67.4416 55.7109 68.3424 55.7109 69.4509C55.7109 70.5593 54.8043 71.4602 53.6888 71.4602Z" fill="#231F20"></path>
<path d="M43.3964 71.4602H30.7852C29.6697 71.4602 28.7632 70.5593 28.7632 69.4509C28.7632 68.3424 29.6697 67.4416 30.7852 67.4416H43.3964C44.5119 67.4416 45.4185 68.3424 45.4185 69.4509C45.4185 70.5593 44.5119 71.4602 43.3964 71.4602Z" fill="#231F20"></path>
<path d="M58.9429 49.3948H52.8328C52.088 49.3948 51.4847 48.7953 51.4847 48.0553C51.4847 47.3152 52.088 46.7157 52.8328 46.7157H58.9429C59.6877 46.7157 60.291 47.3152 60.291 48.0553C60.291 48.7953 59.6877 49.3948 58.9429 49.3948Z" fill="#231F20"></path>
<path d="M58.9429 61.4505H52.8328C52.088 61.4505 51.4847 60.8511 51.4847 60.111C51.4847 59.3709 52.088 58.7715 52.8328 58.7715H58.9429C59.6877 58.7715 60.291 59.3709 60.291 60.111C60.291 60.8511 59.6877 61.4505 58.9429 61.4505Z" fill="#231F20"></path>
<path d="M43.7907 55.4227H37.6806C36.9358 55.4227 36.3325 54.8232 36.3325 54.0831C36.3325 53.343 36.9358 52.7436 37.6806 52.7436H43.7907C44.5355 52.7436 45.1387 53.343 45.1387 54.0831C45.1387 54.8232 44.5355 55.4227 43.7907 55.4227Z" fill="#231F20"></path>
<path d="M58.9429 55.4227H52.8328C52.088 55.4227 51.4847 54.8232 51.4847 54.0831C51.4847 53.343 52.088 52.7436 52.8328 52.7436H58.9429C59.6877 52.7436 60.291 53.343 60.291 54.0831C60.291 54.8232 59.6877 55.4227 58.9429 55.4227Z" fill="#231F20"></path>
<path d="M48.1112 87.0322C47.9966 87.0322 47.8787 87.002 47.7742 86.9418C47.4507 86.7576 47.3428 86.3457 47.5282 86.0275L82.0689 26.9208C82.2576 26.5994 82.6688 26.4922 82.989 26.6764C83.3125 26.8606 83.4203 27.2725 83.235 27.5906L48.6976 86.6973C48.5729 86.9116 48.3471 87.0322 48.1146 87.0322H48.1112Z" fill="#231F20"></path>
<path d="M14.0221 70.0503C13.9075 70.0503 13.7895 70.0202 13.6851 69.9599C13.3615 69.7757 13.2537 69.3638 13.439 69.0457L25.7671 47.9481C25.9558 47.6266 26.367 47.5194 26.6871 47.7036C27.0107 47.8878 27.1185 48.2997 26.9331 48.6179L14.6051 69.7154C14.4804 69.9298 14.2546 70.0503 14.0221 70.0503Z" fill="#231F20"></path>
<path d="M41.6843 22.7047C41.5698 22.7047 41.4518 22.6745 41.3473 22.6143C41.0238 22.4301 40.9159 22.0182 41.1013 21.7L47.481 10.7829C47.6697 10.4614 48.0809 10.3542 48.4011 10.5384C48.7246 10.7226 48.8324 11.1345 48.6471 11.4526L42.2674 22.3698C42.1427 22.5841 41.9169 22.7047 41.6843 22.7047Z" fill="#231F20"></path>
</g>
<defs>
<linearGradient id="SvgjsLinearGradient1011" x1="48" y1="0" x2="48" y2="96" gradientUnits="userSpaceOnUse">
<stop stop-color="#999999"></stop>
<stop offset="1" stop-color="white"></stop>
</linearGradient>
<linearGradient id="SvgjsLinearGradient1010" x1="21.2814" y1="71.5138" x2="90.838" y2="71.5138" gradientUnits="userSpaceOnUse">
<stop stop-color="#9FD1D2"></stop>
<stop offset="0.22" stop-color="#BEC0D9"></stop>
<stop offset="0.44" stop-color="#CAB5D4"></stop>
<stop offset="0.66" stop-color="#E7C7CC"></stop>
</linearGradient>
<linearGradient id="SvgjsLinearGradient1009" x1="17.8" y1="63.7378" x2="59.5556" y2="21.7128" gradientUnits="userSpaceOnUse">
<stop stop-color="#A5D1D0"></stop>
<stop offset="0.66" stop-color="#EBD8D2"></stop>
</linearGradient>
<linearGradient id="SvgjsLinearGradient1008" x1="7.85133" y1="53.755" x2="53.6589" y2="7.65553" gradientUnits="userSpaceOnUse">
<stop stop-color="#B3D7D7"></stop>
<stop offset="0.53" stop-color="#F2E0CA"></stop>
</linearGradient>
<linearGradient id="SvgjsLinearGradient1007" x1="65.5652" y1="63.135" x2="65.5652" y2="4.93248" gradientUnits="userSpaceOnUse">
<stop stop-color="#E7C7CC"></stop>
<stop offset="0.8" stop-color="#F6E0C8"></stop>
</linearGradient>
<clipPath id="SvgjsClipPath1006">
<rect width="72" height="80" fill="white" transform="translate(12 8)"></rect>
</clipPath>
</defs>
</svg><style>@media (prefers-color-scheme: light) { :root { filter: none; } }
@media (prefers-color-scheme: dark) { :root { filter: none; } }
</style></svg>